solid "generator"
   facet normal -1.24344978758018E-14 1.59734400411532E-14 1
      outer loop
         vertex 11500 -24526.9387899731 5000.00000000006
         vertex 8500.00000000001 -24526.9387899731 5000.00000000002
         vertex 8000.00000000001 -25027.3698653524 5000.00000000002
      endloop
   endfacet
   facet normal 7.1152299391485E-15 -3.55944748000289E-15 1
      outer loop
         vertex 8000.00000000001 -25027.3698653524 5000.00000000002
         vertex 8500.00000000001 -24526.9387899731 5000.00000000002
         vertex 8500.00000000001 -21782.1412696868 5000.00000000003
      endloop
   endfacet
   facet normal -2.67283561303631E-14 1.6549133996457E-15 1
      outer loop
         vertex 8000.00000000001 -25027.3698653524 5000.00000000002
         vertex 8500.00000000001 -21782.1412696868 5000.00000000003
         vertex 7999.99999999999 -10000.0000000003 4999.99999999999
      endloop
   endfacet
   facet normal -9.47390314346681E-15 2.38714248228663E-15 1
      outer loop
         vertex 7999.99999999999 -10000.0000000003 4999.99999999999
         vertex 8500.00000000001 -21782.1412696868 5000.00000000003
         vertex 11500 -21782.1412696883 5000.00000000006
      endloop
   endfacet
   facet normal -1.15463194561016E-14 1.77151100001244E-15 1
      outer loop
         vertex 7999.99999999999 -10000.0000000003 4999.99999999999
         vertex 11500 -21782.1412696883 5000.00000000006
         vertex 12000 -10000.0000000003 5000.00000000004
      endloop
   endfacet
   facet normal 6.9194913197255E-14 -1.65491339964565E-15 1
      outer loop
         vertex 12000 -10000.0000000003 5000.00000000004
         vertex 11500 -21782.1412696883 5000.00000000006
         vertex 12000 -25027.3698653524 5000.00000000002
      endloop
   endfacet
   facet normal 7.78358358190332E-14 -3.23586134545896E-16 1
      outer loop
         vertex 11500 -21782.1412696883 5000.00000000006
         vertex 11500 -24526.9387899731 5000.00000000006
         vertex 12000 -25027.3698653524 5000.00000000002
      endloop
   endfacet
   facet normal 8.88178419699302E-16 -7.72049601989014E-14 1
      outer loop
         vertex 12000 -25027.3698653524 5000.00000000002
         vertex 11500 -24526.9387899731 5000.00000000006
         vertex 8000.00000000001 -25027.3698653524 5000.00000000002
      endloop
   endfacet
   facet normal -1 -9.45664799797549E-16 3.54624299924083E-15
      outer loop
         vertex 8000.00000000001 -25027.3698653524 5000.00000000002
         vertex 7999.99999999999 -10000.0000000003 4999.99999999999
         vertex 7999.99999999999 -25000.0000000003 1000.00000000002
      endloop
   endfacet
   facet normal -1 0 0
      outer loop
         vertex 7999.99999999999 -25000.0000000003 1000.00000000002
         vertex 7999.99999999999 -10000.0000000003 4999.99999999999
         vertex 7999.99999999999 -10000.0000000003 999.999999999975
      endloop
   endfacet
   facet normal -9.11578301343512E-18 -0.999976591149194 -0.00684230616374945
      outer loop
         vertex 7999.99999999999 -25000.0000000003 1000.00000000002
         vertex 12000 -25000.0000000003 1000.00000000002
         vertex 8000.00000000001 -25027.3698653524 5000.00000000002
      endloop
   endfacet
   facet normal -1.06639687302437E-14 -0.999976591149194 -0.0068423061637601
      outer loop
         vertex 8000.00000000001 -25027.3698653524 5000.00000000002
         vertex 12000 -25000.0000000003 1000.00000000002
         vertex 12000 -25027.3698653524 5000.00000000002
      endloop
   endfacet
   facet normal 1 0 0
      outer loop
         vertex 12000 -10000.0000000003 999.999999999971
         vertex 12000 -10000.0000000003 5000.00000000004
         vertex 12000 -25000.0000000003 1000.00000000002
      endloop
   endfacet
   facet normal 1 9.45664799797557E-16 -3.54624299924082E-15
      outer loop
         vertex 12000 -25000.0000000003 1000.00000000002
         vertex 12000 -10000.0000000003 5000.00000000004
         vertex 12000 -25027.3698653524 5000.00000000002
      endloop
   endfacet
   facet normal -3.55271367880046E-15 1 -3.55271367880044E-15
      outer loop
         vertex 12000 -10000.0000000003 5000.00000000004
         vertex 12000 -10000.0000000003 999.999999999971
         vertex 7999.99999999999 -10000.0000000003 4999.99999999999
      endloop
   endfacet
   facet normal -3.5527136788005E-15 1 -3.55271367880048E-15
      outer loop
         vertex 7999.99999999999 -10000.0000000003 4999.99999999999
         vertex 12000 -10000.0000000003 999.999999999971
         vertex 7999.99999999999 -10000.0000000003 999.999999999975
      endloop
   endfacet
   facet normal -6.40772628186439E-16 -2.91194105061408E-15 -1
      outer loop
         vertex 11500 -10500.0000000003 999.999999999973
         vertex 12000 -10000.0000000003 999.999999999971
         vertex 11500 -12940.0999999995 999.99999999998
      endloop
   endfacet
   facet normal -5.28768140389158E-16 -2.93098878501041E-15 -1
      outer loop
         vertex 11500 -12940.0999999995 999.99999999998
         vertex 12000 -10000.0000000003 999.999999999971
         vertex 12000 -25000.0000000003 1000.00000000002
      endloop
   endfacet
   facet normal -1.33226762955019E-15 -2.9643016437058E-15 -1
      outer loop
         vertex 11500 -12940.0999999995 999.99999999998
         vertex 12000 -25000.0000000003 1000.00000000002
         vertex 7999.99999999999 -25000.0000000003 1000.00000000002
      endloop
   endfacet
   facet normal -1.03620815631682E-15 -2.51650552248371E-15 -1
      outer loop
         vertex 11500 -10500.0000000003 999.999999999973
         vertex 8500.00000000001 -10500.0000000003 999.999999999976
         vertex 12000 -10000.0000000003 999.999999999971
      endloop
   endfacet
   facet normal -8.88178419700113E-16 -3.55271367880063E-15 -1
      outer loop
         vertex 12000 -10000.0000000003 999.999999999971
         vertex 8500.00000000001 -10500.0000000003 999.999999999976
         vertex 7999.99999999999 -10000.0000000003 999.999999999975
      endloop
   endfacet
   facet normal -6.11398422840338E-16 -3.27593368194084E-15 -1
      outer loop
         vertex 8500.00000000001 -10500.0000000003 999.999999999976
         vertex 8500.00000000001 -12940.0999999995 999.999999999984
         vertex 7999.99999999999 -10000.0000000003 999.999999999975
      endloop
   endfacet
   facet normal 7.20590994286773E-16 -3.04941257430377E-15 -1
      outer loop
         vertex 7999.99999999999 -10000.0000000003 999.999999999975
         vertex 8500.00000000001 -12940.0999999995 999.999999999984
         vertex 7999.99999999999 -25000.0000000003 1000.00000000002
      endloop
   endfacet
   facet normal -1.33226762955019E-15 -2.9643016437058E-15 -1
      outer loop
         vertex 8500.00000000001 -12940.0999999995 999.999999999984
         vertex 11500 -12940.0999999995 999.99999999998
         vertex 7999.99999999999 -25000.0000000003 1000.00000000002
      endloop
   endfacet
endsolid
solid "building"
   facet normal 3.05533376376844E-14 1 7.25593951719525E-30
      outer loop
         vertex -1.0185082650248E-10 50000.0000000004 10000
         vertex 19999.9999999999 49999.9999999997 10000.0000000001
         vertex -9.9475983006414E-11 50000.0000000004 4.44089209850063E-13
      endloop
   endfacet
   facet normal 1.42108547152025E-15 1 5.82645043323276E-14
      outer loop
         vertex -9.9475983006414E-11 50000.0000000004 4.44089209850063E-13
         vertex 19999.9999999999 49999.9999999997 10000.0000000001
         vertex 19999.9999999999 50000.0000000003 -1.55431223447522E-11
      endloop
   endfacet
   facet normal -7.99360577730114E-16 -2.04472746633287E-30 -1
      outer loop
         vertex 19999.9999999999 50000.0000000003 -1.55431223447522E-11
         vertex 20000 3.37022185332991E-10 -1.55431223447522E-11
         vertex -9.9475983006414E-11 50000.0000000004 4.44089209850063E-13
      endloop
   endfacet
   facet normal -7.99360577730112E-16 -1.36315164422191E-30 -1
      outer loop
         vertex -9.9475983006414E-11 50000.0000000004 4.44089209850063E-13
         vertex 20000 3.37022185332991E-10 -1.55431223447522E-11
         vertex -1.4210854715202E-11 3.6226533925432E-10 4.44089209850063E-13
      endloop
   endfacet
   facet normal -1.50102152929319E-14 -1 -6.37226491191627E-14
      outer loop
         vertex 20000 -3.00204305858642E-10 10000.0000000001
         vertex 2.76358595589433E-11 0 10000
         vertex 20000 3.37022185332991E-10 -1.55431223447522E-11
      endloop
   endfacet
   facet normal -1.26215769606644E-15 -1 -3.6226533925432E-14
      outer loop
         vertex 20000 3.37022185332991E-10 -1.55431223447522E-11
         vertex 2.76358595589433E-11 0 10000
         vertex -1.4210854715202E-11 3.6226533925432E-10 4.44089209850063E-13
      endloop
   endfacet
   facet normal -4.1744385725906E-15 -1.1864468014524E-29 1
      outer loop
         vertex 19999.9999999999 49999.9999999997 10000.0000000001
         vertex -1.0185082650248E-10 50000.0000000004 10000
         vertex 20000 -3.00204305858642E-10 10000.0000000001
      endloop
   endfacet
   facet normal -4.1744385725906E-15 -1.11071615455118E-29 1
      outer loop
         vertex 20000 -3.00204305858642E-10 10000.0000000001
         vertex -1.0185082650248E-10 50000.0000000004 10000
         vertex 2.76358595589433E-11 0 10000
      endloop
   endfacet
   facet normal 1 2.8421709430404E-15 1.65597681223993E-28
      outer loop
         vertex 19999.9999999999 49999.9999999997 10000.0000000001
         vertex 20000 -3.00204305858642E-10 10000.0000000001
         vertex 19999.9999999999 50000.0000000003 -1.55431223447522E-11
      endloop
   endfacet
   facet normal 1 2.55795384873636E-15 -1.42108547152002E-15
      outer loop
         vertex 19999.9999999999 50000.0000000003 -1.55431223447522E-11
         vertex 20000 -3.00204305858642E-10 10000.0000000001
         vertex 20000 3.37022185332991E-10 -1.55431223447522E-11
      endloop
   endfacet
   facet normal -1 -2.58973372122844E-15 4.18467142741444E-15
      outer loop
         vertex 2.76358595589433E-11 0 10000
         vertex -1.0185082650248E-10 50000.0000000004 10000
         vertex -1.4210854715202E-11 3.6226533925432E-10 4.44089209850063E-13
      endloop
   endfacet
   facet normal -1 -1.70530256582424E-15 -2.37484349606565E-16
      outer loop
         vertex -1.4210854715202E-11 3.6226533925432E-10 4.44089209850063E-13
         vertex -1.0185082650248E-10 50000.0000000004 10000
         vertex -9.9475983006414E-11 50000.0000000004 4.44089209850063E-13
      endloop
   endfacet
endsolid
solid "condenser"
   facet normal 2.52435489670723E-29 -1.06581410364015E-14 -1
      outer loop
         vertex 10695.071 27999.9999999997 11000
         vertex 9195.07099999996 27999.9999999996 11000
         vertex 8695.07099999996 28999.9999999997 11000
      endloop
   endfacet
   facet normal 2.13162820728033E-14 9.4663308626523E-29 -1
      outer loop
         vertex 8695.07099999996 28999.9999999997 11000
         vertex 9195.07099999996 27999.9999999996 11000
         vertex 9195.07099999999 21999.9999999997 11000
      endloop
   endfacet
   facet normal 2.66453525910039E-15 -1.33226762955018E-15 -1
      outer loop
         vertex 8695.07099999996 28999.9999999997 11000
         vertex 9195.07099999999 21999.9999999997 11000
         vertex 8695.07099999999 20999.9999999997 11000
      endloop
   endfacet
   facet normal 0 0 -1
      outer loop
         vertex 8695.07099999999 20999.9999999997 11000
         vertex 9195.07099999999 21999.9999999997 11000
         vertex 10695.071 21999.9999999997 11000
      endloop
   endfacet
   facet normal 0 0 -1
      outer loop
         vertex 8695.07099999999 20999.9999999997 11000
         vertex 10695.071 21999.9999999997 11000
         vertex 11195.071 20999.9999999997 11000
      endloop
   endfacet
   facet normal 0 0 -1
      outer loop
         vertex 11195.071 20999.9999999997 11000
         vertex 10695.071 21999.9999999997 11000
         vertex 10695.071 27999.9999999997 11000
      endloop
   endfacet
   facet normal -1.86517468137029E-14 -1.33226762955025E-15 -1
      outer loop
         vertex 11195.071 20999.9999999997 11000
         vertex 10695.071 27999.9999999997 11000
         vertex 11195.0709999999 28999.9999999997 11000
      endloop
   endfacet
   facet normal 3.02922587604869E-29 -1.06581410364014E-14 -1
      outer loop
         vertex 11195.0709999999 28999.9999999997 11000
         vertex 10695.071 27999.9999999997 11000
         vertex 8695.07099999996 28999.9999999997 11000
      endloop
   endfacet
   facet normal 0 0 1
      outer loop
         vertex 8695.07099999999 20999.9999999997 12500
         vertex 11195.071 20999.9999999997 12500
         vertex 10695.071 21999.9999999997 12500
      endloop
   endfacet
   facet normal 2.66453525910043E-15 1.3322676295502E-15 1
      outer loop
         vertex 10695.071 21999.9999999997 12500
         vertex 11195.071 20999.9999999997 12500
         vertex 11195.0709999999 28999.9999999997 12500
      endloop
   endfacet
   facet normal 2.13162820728033E-14 9.46633086265227E-29 1
      outer loop
         vertex 10695.071 21999.9999999997 12500
         vertex 11195.0709999999 28999.9999999997 12500
         vertex 10695.071 27999.9999999997 12500
      endloop
   endfacet
   facet normal -3.02922587604869E-29 1.06581410364014E-14 1
      outer loop
         vertex 10695.071 27999.9999999997 12500
         vertex 11195.0709999999 28999.9999999997 12500
         vertex 8695.07099999996 28999.9999999997 12500
      endloop
   endfacet
   facet normal -2.52435489670723E-29 1.06581410364015E-14 1
      outer loop
         vertex 10695.071 27999.9999999997 12500
         vertex 8695.07099999996 28999.9999999997 12500
         vertex 9195.07099999996 27999.9999999996 12500
      endloop
   endfacet
   facet normal -1.86517468137029E-14 1.33226762955012E-15 1
      outer loop
         vertex 9195.07099999996 27999.9999999996 12500
         vertex 8695.07099999996 28999.9999999997 12500
         vertex 8695.07099999999 20999.9999999997 12500
      endloop
   endfacet
   facet normal 0 0 1
      outer loop
         vertex 9195.07099999996 27999.9999999996 12500
         vertex 8695.07099999999 20999.9999999997 12500
         vertex 9195.07099999999 21999.9999999997 12500
      endloop
   endfacet
   facet normal 0 0 1
      outer loop
         vertex 9195.07099999999 21999.9999999997 12500
         vertex 8695.07099999999 20999.9999999997 12500
         vertex 10695.071 21999.9999999997 12500
      endloop
   endfacet
   facet normal 1 3.5527136788005E-15 0
      outer loop
         vertex 11195.0709999999 28999.9999999997 12500
         vertex 11195.071 20999.9999999997 12500
         vertex 11195.0709999999 28999.9999999997 11000
      endloop
   endfacet
   facet normal 1 3.5527136788005E-15 0
      outer loop
         vertex 11195.0709999999 28999.9999999997 11000
         vertex 11195.071 20999.9999999997 12500
         vertex 11195.071 20999.9999999997 11000
      endloop
   endfacet
   facet normal -1 -3.5527136788005E-15 0
      outer loop
         vertex 8695.07099999996 28999.9999999997 12500
         vertex 8695.07099999996 28999.9999999997 11000
         vertex 8695.07099999999 20999.9999999997 12500
      endloop
   endfacet
   facet normal -1 -3.5527136788005E-15 0
      outer loop
         vertex 8695.07099999999 20999.9999999997 12500
         vertex 8695.07099999996 28999.9999999997 11000
         vertex 8695.07099999999 20999.9999999997 11000
      endloop
   endfacet
   facet normal 2.84217094304042E-15 -1 0
      outer loop
         vertex 11195.071 20999.9999999997 12500
         vertex 8695.07099999999 20999.9999999997 12500
         vertex 11195.071 20999.9999999997 11000
      endloop
   endfacet
   facet normal 2.84217094304042E-15 -1 0
      outer loop
         vertex 11195.071 20999.9999999997 11000
         vertex 8695.07099999999 20999.9999999997 12500
         vertex 8695.07099999999 20999.9999999997 11000
      endloop
   endfacet
   facet normal -2.84217094304042E-15 1 0
      outer loop
         vertex 8695.07099999996 28999.9999999997 12500
         vertex 11195.0709999999 28999.9999999997 12500
         vertex 8695.07099999996 28999.9999999997 11000
      endloop
   endfacet
   facet normal -2.84217094304042E-15 1 0
      outer loop
         vertex 8695.07099999996 28999.9999999997 11000
         vertex 11195.0709999999 28999.9999999997 12500
         vertex 11195.0709999999 28999.9999999997 11000
      endloop
   endfacet
endsolid
